<svg width="225" height="449" viewBox="0 0 225 449" fill="none" xmlns="http://www.w3.org/2000/svg">
<g opacity="0.08">
<path d="M103.874 253.831C72.5133 232.92 42.8025 220.783 9.59902 182.847C4.09575 201.402 1.71292 221.076 2.73962 240.244C25.2249 233.043 63.4722 227.875 103.874 253.831Z" fill="url(#paint0_linear_570_2967)"/>
<path d="M121.81 435.599C121.424 440.023 120.36 444.38 118.342 448.591C135.035 426.622 150.081 402.757 157.275 376.386C164.47 350.016 162.987 320.685 148.432 298.734C144.827 293.297 140.528 287.996 135.816 282.955C133.328 280.328 130.836 277.845 128.343 275.496C128.026 275.201 127.715 274.9 127.396 274.607C127.368 274.581 127.339 274.555 127.311 274.529C121.072 268.802 114.432 263.585 107.868 259.121C107.247 258.698 106.628 258.286 106.009 257.871C65.1514 231.493 26.4737 236.743 3.73477 244.06L3.73479 244.062C123.337 333.814 126.537 406.972 121.81 435.599Z" fill="url(#paint1_linear_570_2967)"/>
<path d="M3.80518 242.996C3.80518 242.996 56.809 285.208 95.2591 369.8C95.2598 369.802 95.2605 369.803 95.2612 369.805C105.258 378.706 113.06 389.933 117.044 402.602C120.37 413.178 123.516 424.44 122.568 435.293C127.323 406.552 124.103 333.103 3.80518 242.996Z" fill="url(#paint2_linear_570_2967)"/>
<path d="M3.80518 242.148C5.61268 276.048 17.8618 308.391 42.1452 330.489C53.5165 340.836 78.0801 355.39 90.2565 364.78C91.8519 366.01 93.3999 367.299 94.9012 368.638C94.9005 368.636 94.8998 368.635 94.8991 368.633C56.6002 284.253 3.80518 242.148 3.80518 242.148Z" fill="url(#paint3_linear_570_2967)"/>
<path d="M180.216 242.062C104.471 164.922 69.2328 59.3775 60.09 28.3561C59.027 25.4648 58.1942 22.5254 57.6306 19.5485C57.6135 19.4824 57.6029 19.4393 57.6029 19.4393C57.6029 19.4393 57.6096 19.4428 57.6122 19.4442C56.4237 13.0959 56.464 6.58065 58.1922 0C58.1922 0 -21.4697 90.8754 112.502 248.604C112.502 248.604 112.481 248.593 112.462 248.584C124.315 257.967 135.655 267.954 145.651 279.486C146.158 280.07 146.657 280.664 147.157 281.258C152.632 263.195 164.855 250.671 180.216 242.062Z" fill="url(#paint4_linear_570_2967)"/>
<path d="M149.039 118.75C130.173 103.318 103.214 82.6442 85.5552 64.9699C75.1645 54.5699 65.1052 41.9923 60.0913 28.3544C69.2341 59.3758 104.472 164.92 180.218 242.06C193.285 234.737 208.619 230.242 223.999 227.578C218.454 176.725 190.622 152.767 149.039 118.75Z" fill="url(#paint5_linear_570_2967)"/>
<path d="M58.1922 0C34.0343 12.9477 14.9074 35.9824 5.92893 62.9395C-3.04954 89.8972 -1.78058 120.482 9.39532 146.51C22.285 176.528 46.9141 199.012 72.2235 218.345C85.5335 228.512 99.3146 238.176 112.462 248.584C112.481 248.593 112.503 248.604 112.503 248.604C-21.4697 90.8754 58.1922 0 58.1922 0Z" fill="url(#paint6_linear_570_2967)"/>
<path d="M175.701 369.396C199.639 345.045 215.793 312.58 222.07 278.172C206.921 267.271 192.994 255.071 180.219 242.061C164.857 250.671 152.634 263.195 147.158 281.257C167.429 305.408 181.312 337.786 175.701 369.396Z" fill="url(#paint7_linear_570_2967)"/>
<path d="M222.066 278.173C225.052 261.81 225.814 245.008 224.098 228.428C224.068 228.141 224.028 227.866 223.997 227.581C208.616 230.244 193.282 234.739 180.215 242.063C192.99 255.072 206.918 267.273 222.066 278.173Z" fill="url(#paint8_linear_570_2967)"/>
</g>
<defs>
<linearGradient id="paint0_linear_570_2967" x1="2.34829" y1="221.839" x2="103.387" y2="220.367" gradientUnits="userSpaceOnUse">
<stop stop-color="#B974FF"/>
<stop offset="0.6071" stop-color="#932EFA"/>
<stop offset="1" stop-color="#6104C0"/>
</linearGradient>
<linearGradient id="paint1_linear_570_2967" x1="5.23988" y1="348.047" x2="161.489" y2="345.784" gradientUnits="userSpaceOnUse">
<stop stop-color="#6104C0"/>
<stop offset="0.3929" stop-color="#932EFA"/>
<stop offset="1" stop-color="#B974FF"/>
</linearGradient>
<linearGradient id="paint2_linear_570_2967" x1="5.25514" y1="342.883" x2="122.673" y2="341.179" gradientUnits="userSpaceOnUse">
<stop stop-color="#6104C0"/>
<stop offset="0.3929" stop-color="#932EFA"/>
<stop offset="1" stop-color="#B974FF"/>
</linearGradient>
<linearGradient id="paint3_linear_570_2967" x1="50.3111" y1="371.52" x2="41.7913" y2="239.693" gradientUnits="userSpaceOnUse">
<stop stop-color="#6104C0"/>
<stop offset="0.3929" stop-color="#932EFA"/>
<stop offset="1" stop-color="#B974FF"/>
</linearGradient>
<linearGradient id="paint4_linear_570_2967" x1="-0.000861468" y1="140.629" x2="225.005" y2="140.629" gradientUnits="userSpaceOnUse">
<stop stop-color="#0437B9"/>
<stop offset="0.5612" stop-color="#2E68FD"/>
<stop offset="1" stop-color="#5E8BFC"/>
</linearGradient>
<linearGradient id="paint5_linear_570_2967" x1="110.447" y1="147.199" x2="172.439" y2="113.25" gradientUnits="userSpaceOnUse">
<stop stop-color="#5E8BFC"/>
<stop offset="0.2004" stop-color="#6B94FB"/>
<stop offset="0.4235" stop-color="#2E68FD"/>
<stop offset="1" stop-color="#0437B9"/>
</linearGradient>
<linearGradient id="paint6_linear_570_2967" x1="18.7641" y1="164.742" x2="118.499" y2="110.124" gradientUnits="userSpaceOnUse">
<stop stop-color="#0437B9"/>
<stop offset="0.3929" stop-color="#2E68FD"/>
<stop offset="1" stop-color="#5E8BFC"/>
</linearGradient>
<linearGradient id="paint7_linear_570_2967" x1="184.614" y1="369.396" x2="184.614" y2="242.061" gradientUnits="userSpaceOnUse">
<stop stop-color="#5E8BFC"/>
<stop offset="0.4388" stop-color="#2E68FD"/>
<stop offset="1" stop-color="#0437B9"/>
</linearGradient>
<linearGradient id="paint8_linear_570_2967" x1="202.608" y1="278.173" x2="202.608" y2="227.581" gradientUnits="userSpaceOnUse">
<stop stop-color="#5E8BFC"/>
<stop offset="0.4388" stop-color="#2E68FD"/>
<stop offset="1" stop-color="#0437B9"/>
</linearGradient>
</defs>
</svg>
